Coordinates
version=1
nRows=11
nColumns=46
inDegrees=yes

Units are S.I. units (second, meters, Newtons, ...)
Angles are in degrees.

endheader
time	pelvis_tilt	pelvis_list	pelvis_rotation	pelvis_tx	pelvis_ty	pelvis_tz	bb_angle	bb_tx	bb_ty	bb_tz	hip_flexion_r	hip_adduction_r	hip_rotation_r	knee_angle_r	knee_angle_r_beta	ankle_angle_r	subtalar_angle_r	mtp_angle_r	crank_angle_r	hip_flexion_l	hip_adduction_l	hip_rotation_l	knee_angle_l	knee_angle_l_beta	ankle_angle_l	subtalar_angle_l	mtp_angle_l	crank_angle_l	lumbar_extension	lumbar_bending	lumbar_rotation	arm_flex_r	arm_add_r	arm_rot_r	elbow_flex_r	pro_sup_r	wrist_flex_r	wrist_dev_r	arm_flex_l	arm_add_l	arm_rot_l	elbow_flex_l	pro_sup_l	wrist_flex_l	wrist_dev_l
      2.50000000	    -18.00675901	     -3.21720894	      1.76360391	      0.18091359	      1.05793001	     -0.25059761	      0.00000000	      0.50000000	      0.00000000	      0.25000000	     58.67267767	     -0.54147163	      4.87620840	     91.44505994	      1.59601738	      4.48746930	     -6.66518559	      0.00000000	      0.00000000	     62.70720530	     -4.23994613	      4.49587187	     52.09282292	      0.90919128	     11.77794033	     -7.41058428	      0.00000000	      0.00000000	    -65.25334965	     -3.68503342	     -0.47926902	     80.02344876	    -34.90461786	     26.28790356	     77.89142869	     47.76654413	      0.00000000	      0.00000000	     87.11487308	    -19.79047569	     30.46854316	     83.12923084	     43.99740604	      0.00000000	      0.00000000
      2.50500000	    -17.86896053	     -3.60739462	      1.35673478	      0.18195209	      1.05785604	     -0.25095541	      0.00000000	      0.50000000	      0.00000000	      0.25000000	     59.18929749	     -0.03583643	      4.78317880	     92.71178243	      1.61812586	      4.83911944	     -6.53933013	      0.00000000	      0.00000000	     61.78175611	     -4.84563834	      4.46473675	     50.87549029	      0.88794481	     10.77477014	     -7.16114693	      0.00000000	      0.00000000	    -65.20866446	     -3.53536482	      0.06439589	     80.02727667	    -34.66466407	     26.53923717	     77.88882274	     47.81238353	      0.00000000	      0.00000000	     86.68839859	    -20.00870523	     30.50858185	     83.19791775	     44.02618895	      0.00000000	      0.00000000
      2.51000000	    -17.72397246	     -3.73626798	      0.94165882	      0.18297781	      1.05774250	     -0.25163643	      0.00000000	      0.50000000	      0.00000000	      0.25000000	     59.74380134	      0.27739176	      5.04363167	     94.08708225	      1.64212937	      5.53536702	     -5.74180417	      0.00000000	      0.00000000	     60.73354210	     -5.21778808	      4.30446658	     49.60485867	      0.86576811	      9.65050754	     -7.42772931	      0.00000000	      0.00000000	    -65.16414084	     -3.45847345	      0.25743627	     80.20361549	    -34.27539724	     27.13799416	     77.67417241	     47.90297541	      0.00000000	      0.00000000	     86.14313425	    -20.41129493	     30.35294411	     83.50441460	     44.10816000	      0.00000000	      0.00000000
      2.51500000	    -17.54668452	     -4.04089747	      0.57393568	      0.18391996	      1.05769196	     -0.25221048	      0.00000000	      0.50000000	      0.00000000	      0.25000000	     60.24932218	      0.69573493	      5.08543102	     95.36166914	      1.66437511	      6.02281781	     -5.35123858	      0.00000000	      0.00000000	     59.69156548	     -5.70194833	      4.28594532	     48.35967643	      0.84403558	      8.63864011	     -7.36288788	      0.00000000	      0.00000000	    -65.12745427	     -3.13308678	      0.27834501	     80.95675236	    -33.18780154	     28.20208203	     76.57547367	     48.07908387	      0.00000000	      0.00000000	     85.42488583	    -21.47628955	     30.08226195	     84.23528244	     44.37311729	      0.00000000	      0.00000000
      2.52000000	    -17.43684859	     -4.40859112	      0.19837893	      0.18491597	      1.05752617	     -0.25257469	      0.00000000	      0.50000000	      0.00000000	      0.25000000	     60.83279224	      1.19495681	      5.05666445	     96.60118540	      1.68600875	      6.39971126	     -5.34724371	      0.00000000	      0.00000000	     58.72150428	     -6.31004927	      4.13783855	     47.12111839	      0.82241866	      7.85857442	     -6.96531004	      0.00000000	      0.00000000	    -65.00895583	     -2.90558572	      0.90642597	     80.91994320	    -32.97126386	     28.32519847	     76.57994642	     48.10583981	      0.00000000	      0.00000000	     84.96470547	    -21.62802340	     30.12802278	     84.17192055	     44.38071471	      0.00000000	      0.00000000
      2.52500000	    -17.25516387	     -4.64240474	     -0.27266749	      0.18596897	      1.05747514	     -0.25284382	      0.00000000	      0.50000000	      0.00000000	      0.25000000	     61.37278561	      1.70079222	      5.26231728	     97.84568047	      1.70772928	      6.91739228	     -4.90864145	      0.00000000	      0.00000000	     57.59089410	     -6.89434014	      3.86923099	     45.87044053	      0.80059022	      6.98299464	     -6.84137166	      0.00000000	      0.00000000	    -64.91901293	     -2.82188726	      1.35423987	     80.89645091	    -32.55869427	     28.56143754	     76.41161502	     48.13811781	      0.00000000	      0.00000000	     84.22957613	    -21.77959014	     29.88997356	     84.12217378	     44.39230929	      0.00000000	      0.00000000
      2.53000000	    -17.17293184	     -4.99971874	     -0.61597041	      0.18685228	      1.05728460	     -0.25319713	      0.00000000	      0.50000000	      0.00000000	      0.25000000	     62.00363033	      2.17468544	      5.22719153	     99.04674813	      1.72869187	      7.29574789	     -4.82115260	      0.00000000	      0.00000000	     56.60695843	     -7.45309652	      3.80154208	     44.61763169	      0.77872458	      6.23141714	     -6.47432902	      0.00000000	      0.00000000	    -64.75211601	     -2.55512587	      1.93481537	     80.86537925	    -32.28468862	     28.69282182	     76.34606651	     48.15008095	      0.00000000	      0.00000000	     83.67360634	    -21.92396473	     29.81260801	     84.05704849	     44.39387612	      0.00000000	      0.00000000
      2.53500000	    -16.89985836	     -5.12207604	     -1.00219274	      0.18783302	      1.05743899	     -0.25368556	      0.00000000	      0.50000000	      0.00000000	      0.25000000	     62.44659573	      2.52837447	      5.50659657	    100.26875688	      1.75001994	      8.03172216	     -3.89445083	      0.00000000	      0.00000000	     55.30763201	     -7.90480237	      3.37779700	     43.30630184	      0.75583755	      5.43296456	     -6.25878111	      0.00000000	      0.00000000	    -64.75998267	     -2.34777117	      2.09554694	     81.26229170	    -31.40813508	     29.28278473	     75.46549685	     48.14058053	      0.00000000	      0.00000000	     82.78599454	    -22.17106551	     28.99811420	     84.04262669	     44.41293911	      0.00000000	      0.00000000
      2.54000000	    -16.85688433	     -5.50126545	     -1.31899784	      0.18871743	      1.05714036	     -0.25409977	      0.00000000	      0.50000000	      0.00000000	      0.25000000	     63.12188507	      3.02140802	      5.45364666	    101.41785404	      1.77007547	      8.39412715	     -3.92290024	      0.00000000	      0.00000000	     54.36017032	     -8.47701335	      3.24286608	     42.09778643	      0.73474498	      4.74850071	     -5.84040073	      0.00000000	      0.00000000	    -64.53853702	     -1.98338738	      2.72729895	     81.20103708	    -31.13147891	     29.37775284	     75.41218620	     48.14585343	      0.00000000	      0.00000000	     82.16466094	    -22.35070696	     28.95366953	     83.97002423	     44.41719791	      0.00000000	      0.00000000
      2.54500000	    -16.56245818	     -5.64947903	     -1.71900043	      0.18967263	      1.05731398	     -0.25437203	      0.00000000	      0.50000000	      0.00000000	      0.25000000	     63.53398254	      3.44681639	      5.73024738	    102.55415679	      1.78990770	      9.24113856	     -3.18998936	      0.00000000	      0.00000000	     53.03372959	     -8.99916374	      2.72826298	     40.82681302	      0.71256231	      3.98205325	     -5.36135460	      0.00000000	      0.00000000	    -64.53008487	     -1.79041390	      2.86904450	     81.62011993	    -30.16465848	     29.93512425	     74.43559620	     48.10474256	      0.00000000	      0.00000000	     81.17257901	    -22.63763077	     28.09692722	     83.91266993	     44.42882795	      0.00000000	      0.00000000
      2.55000000	    -16.49911818	     -6.06310258	     -1.97662046	      0.19049620	      1.05710614	     -0.25476901	      0.00000000	      0.50000000	      0.00000000	      0.25000000	     64.18694395	      3.90555270	      5.56869622	    103.61439593	      1.80841236	      9.67177489	     -3.21662075	      0.00000000	      0.00000000	     52.08567909	     -9.58654009	      2.52727577	     39.64970752	      0.69201794	      3.16794497	     -4.83031597	      0.00000000	      0.00000000	    -64.33170680	     -1.35460373	      3.47567985	     81.62501258	    -29.82448124	     30.02146188	     74.27954666	     48.09596058	      0.00000000	      0.00000000	     80.42080919	    -22.82837962	     28.00087746	     83.81102807	     44.43404696	      0.00000000	      0.00000000
